<?xml version="1.0" standalone="no"?><!DOCTYPE svg PUBLIC "-//W3C//DTD SVG 1.1//EN" "http://www.w3.org/Graphics/SVG/1.1/DTD/svg11.dtd"><svg t="1694416159795" class="icon" viewBox="0 0 1024 1024" version="1.1" xmlns="http://www.w3.org/2000/svg" p-id="2538" width="128" height="128" xmlns:xlink="http://www.w3.org/1999/xlink"><path d="M780.190476 498.070349c0 4.534857-2.21054 9.638603-5.461333 13.003175l-255.024762 263.476825c-3.299556 3.397079-8.208254 5.640127-12.580571 5.640127-4.388571 0-9.313524-2.275556-12.580572-5.640127l-255.024762-263.476825a19.732317 19.732317 0 0 1-5.461333-13.003175c0-4.518603 2.21054-9.622349 5.461333-12.98692l27.355429-28.265651c3.299556-3.397079 7.671873-5.640127 12.580571-5.640127 4.388571 0 9.313524 2.275556 12.564318 5.640127L507.12381 679.042032l215.105015-222.224254c3.283302-3.397079 8.192-5.640127 12.564318-5.640127 4.388571 0 9.313524 2.275556 12.580571 5.640127l27.355429 28.281905c3.283302 3.380825 5.461333 8.452063 5.461333 12.970666z m0-217.120508c0 4.534857-2.21054 9.638603-5.461333 13.003175l-255.024762 263.476825c-3.299556 3.397079-8.208254 5.640127-12.580571 5.640127-4.388571 0-9.313524-2.275556-12.580572-5.640127l-255.024762-263.476825a19.732317 19.732317 0 0 1-5.461333-13.003175c0-4.518603 2.21054-9.622349 5.461333-12.98692l27.355429-28.265651c3.299556-3.397079 7.671873-5.640127 12.580571-5.640127 4.388571 0 9.313524 2.275556 12.564318 5.640127L507.12381 461.937778l215.105015-222.224254c3.283302-3.397079 8.192-5.640127 12.564318-5.640127 4.388571 0 9.313524 2.275556 12.580571 5.640127l27.355429 28.281905c3.283302 3.380825 5.461333 8.452063 5.461333 12.970666z" fill="#1d88e0" p-id="2539"></path></svg>